<mxfile host="Electron" modified="2023-05-23T18:36:59.875Z" agent="Mozilla/5.0 (X11; Linux x86_64) AppleWebKit/537.36 (KHTML, like Gecko) draw.io/21.2.8 Chrome/112.0.5615.165 Electron/24.2.0 Safari/537.36" etag="S46bMIDUVwQCuFGOwd6Z" version="21.2.8" type="device" pages="2">
  <diagram name="Page-1" id="e8gIqHN_2aYXNfnI5XAy">
    <mxGraphModel dx="2022" dy="703" grid="1" gridSize="10" guides="1" tooltips="1" connect="1" arrows="1" fold="1" page="1" pageScale="1" pageWidth="827" pageHeight="1169" math="0" shadow="0">
      <root>
        <mxCell id="0" />
        <mxCell id="1" parent="0" />
        <mxCell id="FKL5-TGWjA22Yl3rKmFX-71" value="" style="shape=cube;whiteSpace=wrap;html=1;boundedLbl=1;backgroundOutline=1;darkOpacity=0.05;darkOpacity2=0.1;size=10;fillColor=#f8cecc;strokeColor=#b85450;" vertex="1" parent="1">
          <mxGeometry x="499.99837209302325" y="129.99837209302325" width="276.51162790697674" height="276.51162790697674" as="geometry" />
        </mxCell>
        <mxCell id="FKL5-TGWjA22Yl3rKmFX-73" value="" style="shape=cube;whiteSpace=wrap;html=1;boundedLbl=1;backgroundOutline=1;darkOpacity=0.05;darkOpacity2=0.1;size=10;fillColor=#ffe6cc;strokeColor=#d79b00;" vertex="1" parent="1">
          <mxGeometry x="509.99837209302325" y="139.99837209302325" width="276.51162790697674" height="276.51162790697674" as="geometry" />
        </mxCell>
        <mxCell id="FKL5-TGWjA22Yl3rKmFX-15" value="" style="group" vertex="1" connectable="0" parent="1">
          <mxGeometry x="-80" y="100" width="430" height="430" as="geometry" />
        </mxCell>
        <mxCell id="FKL5-TGWjA22Yl3rKmFX-1" value="" style="shape=cube;whiteSpace=wrap;html=1;boundedLbl=1;backgroundOutline=1;darkOpacity=0.05;darkOpacity2=0.1;size=10;fillColor=#bac8d3;strokeColor=#23445d;" vertex="1" parent="FKL5-TGWjA22Yl3rKmFX-15">
          <mxGeometry width="410" height="410" as="geometry" />
        </mxCell>
        <mxCell id="FKL5-TGWjA22Yl3rKmFX-2" value="" style="shape=cube;whiteSpace=wrap;html=1;boundedLbl=1;backgroundOutline=1;darkOpacity=0.05;darkOpacity2=0.1;size=10;fillColor=#d0cee2;strokeColor=#56517e;" vertex="1" parent="FKL5-TGWjA22Yl3rKmFX-15">
          <mxGeometry x="10" y="10" width="410" height="410" as="geometry" />
        </mxCell>
        <mxCell id="FKL5-TGWjA22Yl3rKmFX-3" value="" style="shape=cube;whiteSpace=wrap;html=1;boundedLbl=1;backgroundOutline=1;darkOpacity=0.05;darkOpacity2=0.1;size=10;fillColor=#b1ddf0;strokeColor=#10739e;" vertex="1" parent="FKL5-TGWjA22Yl3rKmFX-15">
          <mxGeometry x="20" y="20" width="410" height="410" as="geometry" />
        </mxCell>
        <mxCell id="FKL5-TGWjA22Yl3rKmFX-53" value="" style="group" vertex="1" connectable="0" parent="FKL5-TGWjA22Yl3rKmFX-15">
          <mxGeometry x="160" y="160" width="190" height="190" as="geometry" />
        </mxCell>
        <mxCell id="FKL5-TGWjA22Yl3rKmFX-25" value="" style="shape=cube;whiteSpace=wrap;html=1;boundedLbl=1;backgroundOutline=1;darkOpacity=0.05;darkOpacity2=0.1;size=10;fillColor=none;strokeColor=#36393d;dashed=1;" vertex="1" parent="FKL5-TGWjA22Yl3rKmFX-53">
          <mxGeometry width="100" height="100" as="geometry" />
        </mxCell>
        <mxCell id="FKL5-TGWjA22Yl3rKmFX-28" value="" style="shape=cube;whiteSpace=wrap;html=1;boundedLbl=1;backgroundOutline=1;darkOpacity=0.05;darkOpacity2=0.1;size=10;fillColor=none;strokeColor=#36393d;dashed=1;" vertex="1" parent="FKL5-TGWjA22Yl3rKmFX-53">
          <mxGeometry x="10" y="10" width="100" height="100" as="geometry" />
        </mxCell>
        <mxCell id="FKL5-TGWjA22Yl3rKmFX-29" value="" style="shape=cube;whiteSpace=wrap;html=1;boundedLbl=1;backgroundOutline=1;darkOpacity=0.05;darkOpacity2=0.1;size=10;fillColor=none;strokeColor=#36393d;dashed=1;" vertex="1" parent="FKL5-TGWjA22Yl3rKmFX-53">
          <mxGeometry x="20" y="20" width="100" height="100" as="geometry" />
        </mxCell>
        <mxCell id="FKL5-TGWjA22Yl3rKmFX-47" value="" style="shape=cube;whiteSpace=wrap;html=1;boundedLbl=1;backgroundOutline=1;darkOpacity=0.05;darkOpacity2=0.1;size=10;fillColor=#bac8d3;strokeColor=#23445d;" vertex="1" parent="FKL5-TGWjA22Yl3rKmFX-53">
          <mxGeometry x="70" y="70" width="100" height="100" as="geometry" />
        </mxCell>
        <mxCell id="FKL5-TGWjA22Yl3rKmFX-49" value="" style="shape=cube;whiteSpace=wrap;html=1;boundedLbl=1;backgroundOutline=1;darkOpacity=0.05;darkOpacity2=0.1;size=10;fillColor=#d0cee2;strokeColor=#56517e;" vertex="1" parent="FKL5-TGWjA22Yl3rKmFX-53">
          <mxGeometry x="80" y="80" width="100" height="100" as="geometry" />
        </mxCell>
        <mxCell id="FKL5-TGWjA22Yl3rKmFX-48" value="" style="shape=cube;whiteSpace=wrap;html=1;boundedLbl=1;backgroundOutline=1;darkOpacity=0.05;darkOpacity2=0.1;size=10;fillColor=#b0e3e6;strokeColor=#0e8088;" vertex="1" parent="FKL5-TGWjA22Yl3rKmFX-53">
          <mxGeometry x="90" y="90" width="100" height="100" as="geometry" />
        </mxCell>
        <mxCell id="FKL5-TGWjA22Yl3rKmFX-19" value="" style="endArrow=none;dashed=1;html=1;dashPattern=1 3;strokeWidth=2;rounded=0;entryX=0;entryY=0;entryDx=0;entryDy=0;entryPerimeter=0;" edge="1" parent="FKL5-TGWjA22Yl3rKmFX-53">
          <mxGeometry width="50" height="50" relative="1" as="geometry">
            <mxPoint x="30" y="30" as="sourcePoint" />
            <mxPoint x="70" y="70" as="targetPoint" />
          </mxGeometry>
        </mxCell>
        <mxCell id="FKL5-TGWjA22Yl3rKmFX-51" value="" style="endArrow=none;dashed=1;html=1;dashPattern=1 3;strokeWidth=2;rounded=0;entryX=0;entryY=0;entryDx=0;entryDy=0;entryPerimeter=0;" edge="1" parent="FKL5-TGWjA22Yl3rKmFX-53">
          <mxGeometry width="50" height="50" relative="1" as="geometry">
            <mxPoint x="120" y="30" as="sourcePoint" />
            <mxPoint x="160" y="70" as="targetPoint" />
          </mxGeometry>
        </mxCell>
        <mxCell id="FKL5-TGWjA22Yl3rKmFX-52" value="" style="endArrow=none;dashed=1;html=1;dashPattern=1 3;strokeWidth=2;rounded=0;entryX=0;entryY=0;entryDx=0;entryDy=0;entryPerimeter=0;" edge="1" parent="FKL5-TGWjA22Yl3rKmFX-53">
          <mxGeometry width="50" height="50" relative="1" as="geometry">
            <mxPoint x="30" y="120" as="sourcePoint" />
            <mxPoint x="70" y="160" as="targetPoint" />
          </mxGeometry>
        </mxCell>
        <mxCell id="FKL5-TGWjA22Yl3rKmFX-13" value="" style="group" vertex="1" connectable="0" parent="1">
          <mxGeometry x="537" y="170" width="290" height="290" as="geometry" />
        </mxCell>
        <mxCell id="FKL5-TGWjA22Yl3rKmFX-12" value="" style="shape=cube;whiteSpace=wrap;html=1;boundedLbl=1;backgroundOutline=1;darkOpacity=0.05;darkOpacity2=0.1;size=10;fillColor=#fff2cc;strokeColor=#d6b656;" vertex="1" parent="FKL5-TGWjA22Yl3rKmFX-13">
          <mxGeometry x="13.488372093023255" y="13.488372093023255" width="276.51162790697674" height="276.51162790697674" as="geometry" />
        </mxCell>
        <mxCell id="FKL5-TGWjA22Yl3rKmFX-55" value="" style="shape=cube;whiteSpace=wrap;html=1;boundedLbl=1;backgroundOutline=1;darkOpacity=0.05;darkOpacity2=0.1;dashed=1;fillColor=#f0a30a;size=10;strokeColor=#BD7000;fontColor=#000000;" vertex="1" parent="FKL5-TGWjA22Yl3rKmFX-13">
          <mxGeometry x="73" y="60" width="30" height="30" as="geometry" />
        </mxCell>
        <mxCell id="FKL5-TGWjA22Yl3rKmFX-56" value="" style="endArrow=none;html=1;rounded=0;exitX=0;exitY=0;exitDx=90;exitDy=0;exitPerimeter=0;entryX=0;entryY=0;entryDx=0;entryDy=0;entryPerimeter=0;" edge="1" parent="1" source="FKL5-TGWjA22Yl3rKmFX-25" target="FKL5-TGWjA22Yl3rKmFX-55">
          <mxGeometry width="50" height="50" relative="1" as="geometry">
            <mxPoint x="390" y="310" as="sourcePoint" />
            <mxPoint x="440" y="260" as="targetPoint" />
          </mxGeometry>
        </mxCell>
        <mxCell id="FKL5-TGWjA22Yl3rKmFX-57" value="" style="endArrow=none;html=1;rounded=0;exitX=0;exitY=0;exitDx=100;exitDy=10;exitPerimeter=0;entryX=0.333;entryY=0.333;entryDx=0;entryDy=0;entryPerimeter=0;" edge="1" parent="1" source="FKL5-TGWjA22Yl3rKmFX-29" target="FKL5-TGWjA22Yl3rKmFX-55">
          <mxGeometry width="50" height="50" relative="1" as="geometry">
            <mxPoint x="390" y="310" as="sourcePoint" />
            <mxPoint x="490" y="330" as="targetPoint" />
          </mxGeometry>
        </mxCell>
        <mxCell id="FKL5-TGWjA22Yl3rKmFX-58" value="" style="endArrow=none;html=1;rounded=0;entryX=0;entryY=0;entryDx=10;entryDy=30;entryPerimeter=0;exitX=0;exitY=0;exitDx=95;exitDy=5;exitPerimeter=0;" edge="1" parent="1" source="FKL5-TGWjA22Yl3rKmFX-49" target="FKL5-TGWjA22Yl3rKmFX-55">
          <mxGeometry width="50" height="50" relative="1" as="geometry">
            <mxPoint x="390" y="310" as="sourcePoint" />
            <mxPoint x="440" y="260" as="targetPoint" />
          </mxGeometry>
        </mxCell>
        <mxCell id="FKL5-TGWjA22Yl3rKmFX-59" value="" style="endArrow=none;html=1;rounded=0;entryX=0;entryY=0;entryDx=0;entryDy=20;entryPerimeter=0;exitX=0.695;exitY=0;exitDx=0;exitDy=0;exitPerimeter=0;" edge="1" parent="1" source="FKL5-TGWjA22Yl3rKmFX-47" target="FKL5-TGWjA22Yl3rKmFX-55">
          <mxGeometry width="50" height="50" relative="1" as="geometry">
            <mxPoint x="370" y="250" as="sourcePoint" />
            <mxPoint x="420" y="200" as="targetPoint" />
          </mxGeometry>
        </mxCell>
        <mxCell id="FKL5-TGWjA22Yl3rKmFX-60" value="&lt;font style=&quot;font-size: 30px;&quot;&gt;&lt;span&gt;Input Feature Map&lt;/span&gt;&lt;/font&gt;" style="text;html=1;strokeColor=none;fillColor=none;align=center;verticalAlign=middle;whiteSpace=wrap;rounded=0;fontStyle=1" vertex="1" parent="1">
          <mxGeometry x="-6.25" y="40" width="282.5" height="50" as="geometry" />
        </mxCell>
        <mxCell id="FKL5-TGWjA22Yl3rKmFX-61" value="&lt;font style=&quot;font-size: 30px;&quot;&gt;&lt;span&gt;Output Feature Map&lt;/span&gt;&lt;/font&gt;" style="text;html=1;strokeColor=none;fillColor=none;align=center;verticalAlign=middle;whiteSpace=wrap;rounded=0;fontStyle=1" vertex="1" parent="1">
          <mxGeometry x="498.5" y="70" width="299.5" height="50" as="geometry" />
        </mxCell>
        <mxCell id="FKL5-TGWjA22Yl3rKmFX-64" style="edgeStyle=orthogonalEdgeStyle;rounded=0;orthogonalLoop=1;jettySize=auto;html=1;strokeWidth=3;" edge="1" parent="1" source="FKL5-TGWjA22Yl3rKmFX-63" target="FKL5-TGWjA22Yl3rKmFX-48">
          <mxGeometry relative="1" as="geometry" />
        </mxCell>
        <mxCell id="FKL5-TGWjA22Yl3rKmFX-63" value="&lt;font style=&quot;font-size: 30px;&quot;&gt;&lt;span&gt;Convolution Kernel&lt;/span&gt;&lt;/font&gt;" style="text;html=1;strokeColor=none;fillColor=none;align=center;verticalAlign=middle;whiteSpace=wrap;rounded=0;fontStyle=1" vertex="1" parent="1">
          <mxGeometry x="70" y="580" width="299.5" height="50" as="geometry" />
        </mxCell>
      </root>
    </mxGraphModel>
  </diagram>
  <diagram id="FSeQ4kL06ydM7t-4-fnL" name="Page-2">
    <mxGraphModel dx="1687" dy="992" grid="1" gridSize="10" guides="1" tooltips="1" connect="1" arrows="1" fold="1" page="1" pageScale="1" pageWidth="827" pageHeight="1169" math="0" shadow="0">
      <root>
        <mxCell id="0" />
        <mxCell id="1" parent="0" />
        <mxCell id="b5OsMDEcb1tCV_Yvxusm-1" value="" style="rounded=0;whiteSpace=wrap;html=1;fillColor=#cdeb8b;strokeColor=#36393d;" vertex="1" parent="1">
          <mxGeometry x="230" y="180" width="60" height="60" as="geometry" />
        </mxCell>
        <mxCell id="b5OsMDEcb1tCV_Yvxusm-2" value="" style="rounded=0;whiteSpace=wrap;html=1;fillColor=#d5e8d4;strokeColor=#82b366;" vertex="1" parent="1">
          <mxGeometry x="230" y="240" width="60" height="60" as="geometry" />
        </mxCell>
        <mxCell id="b5OsMDEcb1tCV_Yvxusm-3" value="" style="rounded=0;whiteSpace=wrap;html=1;fillColor=#d5e8d4;strokeColor=#82b366;" vertex="1" parent="1">
          <mxGeometry x="230" y="300" width="60" height="60" as="geometry" />
        </mxCell>
        <mxCell id="b5OsMDEcb1tCV_Yvxusm-4" value="" style="rounded=0;whiteSpace=wrap;html=1;fillColor=#cdeb8b;strokeColor=#36393d;" vertex="1" parent="1">
          <mxGeometry x="230" y="360" width="60" height="60" as="geometry" />
        </mxCell>
        <mxCell id="b5OsMDEcb1tCV_Yvxusm-5" value="" style="rounded=0;whiteSpace=wrap;html=1;fillColor=#60a917;fontColor=#ffffff;strokeColor=#2D7600;" vertex="1" parent="1">
          <mxGeometry x="230" y="420" width="60" height="60" as="geometry" />
        </mxCell>
        <mxCell id="b5OsMDEcb1tCV_Yvxusm-6" value="" style="rounded=0;whiteSpace=wrap;html=1;fillColor=#d5e8d4;strokeColor=#82b366;" vertex="1" parent="1">
          <mxGeometry x="230" y="480" width="60" height="60" as="geometry" />
        </mxCell>
        <mxCell id="b5OsMDEcb1tCV_Yvxusm-16" style="rounded=0;orthogonalLoop=1;jettySize=auto;html=1;entryX=0;entryY=0.5;entryDx=0;entryDy=0;strokeColor=none;endArrow=none;endFill=0;strokeWidth=3;" edge="1" parent="1" source="b5OsMDEcb1tCV_Yvxusm-7" target="b5OsMDEcb1tCV_Yvxusm-13">
          <mxGeometry relative="1" as="geometry" />
        </mxCell>
        <mxCell id="b5OsMDEcb1tCV_Yvxusm-18" style="rounded=0;orthogonalLoop=1;jettySize=auto;html=1;entryX=0;entryY=0.5;entryDx=0;entryDy=0;endArrow=none;endFill=0;strokeWidth=3;" edge="1" parent="1" source="b5OsMDEcb1tCV_Yvxusm-7" target="b5OsMDEcb1tCV_Yvxusm-13">
          <mxGeometry relative="1" as="geometry" />
        </mxCell>
        <mxCell id="b5OsMDEcb1tCV_Yvxusm-19" style="rounded=0;orthogonalLoop=1;jettySize=auto;html=1;entryX=0;entryY=0.5;entryDx=0;entryDy=0;endArrow=none;endFill=0;strokeWidth=3;" edge="1" parent="1" source="b5OsMDEcb1tCV_Yvxusm-7" target="b5OsMDEcb1tCV_Yvxusm-14">
          <mxGeometry relative="1" as="geometry" />
        </mxCell>
        <mxCell id="b5OsMDEcb1tCV_Yvxusm-20" style="rounded=0;orthogonalLoop=1;jettySize=auto;html=1;entryX=0;entryY=0.5;entryDx=0;entryDy=0;endArrow=none;endFill=0;strokeWidth=3;" edge="1" parent="1" source="b5OsMDEcb1tCV_Yvxusm-7" target="b5OsMDEcb1tCV_Yvxusm-15">
          <mxGeometry relative="1" as="geometry" />
        </mxCell>
        <mxCell id="b5OsMDEcb1tCV_Yvxusm-7" value="" style="ellipse;whiteSpace=wrap;html=1;aspect=fixed;strokeWidth=2;" vertex="1" parent="1">
          <mxGeometry x="370" y="185" width="50" height="50" as="geometry" />
        </mxCell>
        <mxCell id="b5OsMDEcb1tCV_Yvxusm-21" style="rounded=0;orthogonalLoop=1;jettySize=auto;html=1;entryX=0;entryY=0.5;entryDx=0;entryDy=0;endArrow=none;endFill=0;strokeWidth=3;" edge="1" parent="1" source="b5OsMDEcb1tCV_Yvxusm-8" target="b5OsMDEcb1tCV_Yvxusm-13">
          <mxGeometry relative="1" as="geometry" />
        </mxCell>
        <mxCell id="b5OsMDEcb1tCV_Yvxusm-22" style="rounded=0;orthogonalLoop=1;jettySize=auto;html=1;entryX=0;entryY=0.5;entryDx=0;entryDy=0;endArrow=none;endFill=0;strokeWidth=3;" edge="1" parent="1" source="b5OsMDEcb1tCV_Yvxusm-8" target="b5OsMDEcb1tCV_Yvxusm-14">
          <mxGeometry relative="1" as="geometry" />
        </mxCell>
        <mxCell id="b5OsMDEcb1tCV_Yvxusm-23" style="rounded=0;orthogonalLoop=1;jettySize=auto;html=1;entryX=0;entryY=0.5;entryDx=0;entryDy=0;endArrow=none;endFill=0;strokeWidth=3;" edge="1" parent="1" source="b5OsMDEcb1tCV_Yvxusm-8" target="b5OsMDEcb1tCV_Yvxusm-15">
          <mxGeometry relative="1" as="geometry" />
        </mxCell>
        <mxCell id="b5OsMDEcb1tCV_Yvxusm-8" value="" style="ellipse;whiteSpace=wrap;html=1;aspect=fixed;strokeWidth=2;" vertex="1" parent="1">
          <mxGeometry x="370" y="245" width="50" height="50" as="geometry" />
        </mxCell>
        <mxCell id="b5OsMDEcb1tCV_Yvxusm-24" style="rounded=0;orthogonalLoop=1;jettySize=auto;html=1;entryX=0;entryY=0.5;entryDx=0;entryDy=0;endArrow=none;endFill=0;strokeWidth=3;" edge="1" parent="1" source="b5OsMDEcb1tCV_Yvxusm-9" target="b5OsMDEcb1tCV_Yvxusm-13">
          <mxGeometry relative="1" as="geometry" />
        </mxCell>
        <mxCell id="b5OsMDEcb1tCV_Yvxusm-25" style="rounded=0;orthogonalLoop=1;jettySize=auto;html=1;entryX=0;entryY=0.5;entryDx=0;entryDy=0;endArrow=none;endFill=0;strokeWidth=3;" edge="1" parent="1" source="b5OsMDEcb1tCV_Yvxusm-9" target="b5OsMDEcb1tCV_Yvxusm-14">
          <mxGeometry relative="1" as="geometry" />
        </mxCell>
        <mxCell id="b5OsMDEcb1tCV_Yvxusm-26" style="rounded=0;orthogonalLoop=1;jettySize=auto;html=1;entryX=0;entryY=0.5;entryDx=0;entryDy=0;endArrow=none;endFill=0;strokeWidth=3;" edge="1" parent="1" source="b5OsMDEcb1tCV_Yvxusm-9" target="b5OsMDEcb1tCV_Yvxusm-15">
          <mxGeometry relative="1" as="geometry" />
        </mxCell>
        <mxCell id="b5OsMDEcb1tCV_Yvxusm-9" value="" style="ellipse;whiteSpace=wrap;html=1;aspect=fixed;strokeWidth=2;" vertex="1" parent="1">
          <mxGeometry x="370" y="305" width="50" height="50" as="geometry" />
        </mxCell>
        <mxCell id="b5OsMDEcb1tCV_Yvxusm-27" style="rounded=0;orthogonalLoop=1;jettySize=auto;html=1;entryX=0;entryY=0.5;entryDx=0;entryDy=0;endArrow=none;endFill=0;strokeWidth=3;" edge="1" parent="1" source="b5OsMDEcb1tCV_Yvxusm-10" target="b5OsMDEcb1tCV_Yvxusm-13">
          <mxGeometry relative="1" as="geometry" />
        </mxCell>
        <mxCell id="b5OsMDEcb1tCV_Yvxusm-28" style="rounded=0;orthogonalLoop=1;jettySize=auto;html=1;entryX=0;entryY=0.5;entryDx=0;entryDy=0;endArrow=none;endFill=0;strokeWidth=3;" edge="1" parent="1" source="b5OsMDEcb1tCV_Yvxusm-10" target="b5OsMDEcb1tCV_Yvxusm-15">
          <mxGeometry relative="1" as="geometry" />
        </mxCell>
        <mxCell id="b5OsMDEcb1tCV_Yvxusm-35" style="rounded=0;orthogonalLoop=1;jettySize=auto;html=1;entryX=0;entryY=0.5;entryDx=0;entryDy=0;endArrow=none;endFill=0;strokeWidth=3;" edge="1" parent="1" source="b5OsMDEcb1tCV_Yvxusm-10" target="b5OsMDEcb1tCV_Yvxusm-14">
          <mxGeometry relative="1" as="geometry" />
        </mxCell>
        <mxCell id="b5OsMDEcb1tCV_Yvxusm-10" value="" style="ellipse;whiteSpace=wrap;html=1;aspect=fixed;strokeWidth=2;" vertex="1" parent="1">
          <mxGeometry x="370" y="365" width="50" height="50" as="geometry" />
        </mxCell>
        <mxCell id="b5OsMDEcb1tCV_Yvxusm-29" style="rounded=0;orthogonalLoop=1;jettySize=auto;html=1;entryX=0;entryY=0.5;entryDx=0;entryDy=0;endArrow=none;endFill=0;strokeWidth=3;" edge="1" parent="1" source="b5OsMDEcb1tCV_Yvxusm-11" target="b5OsMDEcb1tCV_Yvxusm-13">
          <mxGeometry relative="1" as="geometry" />
        </mxCell>
        <mxCell id="b5OsMDEcb1tCV_Yvxusm-30" style="rounded=0;orthogonalLoop=1;jettySize=auto;html=1;entryX=0;entryY=0.5;entryDx=0;entryDy=0;endArrow=none;endFill=0;strokeWidth=3;" edge="1" parent="1" source="b5OsMDEcb1tCV_Yvxusm-11" target="b5OsMDEcb1tCV_Yvxusm-14">
          <mxGeometry relative="1" as="geometry" />
        </mxCell>
        <mxCell id="b5OsMDEcb1tCV_Yvxusm-31" style="rounded=0;orthogonalLoop=1;jettySize=auto;html=1;entryX=0;entryY=0.5;entryDx=0;entryDy=0;endArrow=none;endFill=0;strokeWidth=3;" edge="1" parent="1" source="b5OsMDEcb1tCV_Yvxusm-11" target="b5OsMDEcb1tCV_Yvxusm-15">
          <mxGeometry relative="1" as="geometry" />
        </mxCell>
        <mxCell id="b5OsMDEcb1tCV_Yvxusm-11" value="" style="ellipse;whiteSpace=wrap;html=1;aspect=fixed;strokeWidth=2;" vertex="1" parent="1">
          <mxGeometry x="370" y="425" width="50" height="50" as="geometry" />
        </mxCell>
        <mxCell id="b5OsMDEcb1tCV_Yvxusm-32" style="rounded=0;orthogonalLoop=1;jettySize=auto;html=1;entryX=0;entryY=0.5;entryDx=0;entryDy=0;endArrow=none;endFill=0;strokeWidth=3;" edge="1" parent="1" source="b5OsMDEcb1tCV_Yvxusm-12" target="b5OsMDEcb1tCV_Yvxusm-13">
          <mxGeometry relative="1" as="geometry" />
        </mxCell>
        <mxCell id="b5OsMDEcb1tCV_Yvxusm-33" style="rounded=0;orthogonalLoop=1;jettySize=auto;html=1;entryX=0;entryY=0.5;entryDx=0;entryDy=0;endArrow=none;endFill=0;strokeWidth=3;" edge="1" parent="1" source="b5OsMDEcb1tCV_Yvxusm-12" target="b5OsMDEcb1tCV_Yvxusm-14">
          <mxGeometry relative="1" as="geometry" />
        </mxCell>
        <mxCell id="b5OsMDEcb1tCV_Yvxusm-34" style="rounded=0;orthogonalLoop=1;jettySize=auto;html=1;entryX=0;entryY=0.5;entryDx=0;entryDy=0;endArrow=none;endFill=0;strokeWidth=3;" edge="1" parent="1" source="b5OsMDEcb1tCV_Yvxusm-12" target="b5OsMDEcb1tCV_Yvxusm-15">
          <mxGeometry relative="1" as="geometry" />
        </mxCell>
        <mxCell id="b5OsMDEcb1tCV_Yvxusm-12" value="" style="ellipse;whiteSpace=wrap;html=1;aspect=fixed;strokeWidth=2;" vertex="1" parent="1">
          <mxGeometry x="370" y="485" width="50" height="50" as="geometry" />
        </mxCell>
        <mxCell id="b5OsMDEcb1tCV_Yvxusm-13" value="" style="ellipse;whiteSpace=wrap;html=1;aspect=fixed;strokeWidth=2;" vertex="1" parent="1">
          <mxGeometry x="600" y="280" width="50" height="50" as="geometry" />
        </mxCell>
        <mxCell id="b5OsMDEcb1tCV_Yvxusm-14" value="" style="ellipse;whiteSpace=wrap;html=1;aspect=fixed;strokeWidth=2;" vertex="1" parent="1">
          <mxGeometry x="600" y="340" width="50" height="50" as="geometry" />
        </mxCell>
        <mxCell id="b5OsMDEcb1tCV_Yvxusm-15" value="" style="ellipse;whiteSpace=wrap;html=1;aspect=fixed;strokeWidth=2;" vertex="1" parent="1">
          <mxGeometry x="600" y="400" width="50" height="50" as="geometry" />
        </mxCell>
        <mxCell id="b5OsMDEcb1tCV_Yvxusm-36" value="" style="rounded=0;whiteSpace=wrap;html=1;fillColor=#f8cecc;strokeColor=#b85450;" vertex="1" parent="1">
          <mxGeometry x="720" y="275" width="60" height="60" as="geometry" />
        </mxCell>
        <mxCell id="b5OsMDEcb1tCV_Yvxusm-37" value="" style="rounded=0;whiteSpace=wrap;html=1;fillColor=#e51400;fontColor=#ffffff;strokeColor=#B20000;" vertex="1" parent="1">
          <mxGeometry x="720" y="335" width="60" height="60" as="geometry" />
        </mxCell>
        <mxCell id="b5OsMDEcb1tCV_Yvxusm-38" value="" style="rounded=0;whiteSpace=wrap;html=1;fillColor=#fad7ac;strokeColor=#b46504;" vertex="1" parent="1">
          <mxGeometry x="720" y="395" width="60" height="60" as="geometry" />
        </mxCell>
        <mxCell id="b5OsMDEcb1tCV_Yvxusm-39" value="&lt;font style=&quot;font-size: 30px;&quot;&gt;&lt;b&gt;Input Features&lt;/b&gt;&lt;/font&gt;" style="text;html=1;strokeColor=none;fillColor=none;align=center;verticalAlign=middle;whiteSpace=wrap;rounded=0;" vertex="1" parent="1">
          <mxGeometry x="130" y="110" width="270" height="50" as="geometry" />
        </mxCell>
        <mxCell id="b5OsMDEcb1tCV_Yvxusm-40" value="&lt;font style=&quot;font-size: 30px;&quot;&gt;&lt;b&gt;Output Features&lt;/b&gt;&lt;/font&gt;" style="text;html=1;strokeColor=none;fillColor=none;align=center;verticalAlign=middle;whiteSpace=wrap;rounded=0;" vertex="1" parent="1">
          <mxGeometry x="615" y="205" width="270" height="50" as="geometry" />
        </mxCell>
        <mxCell id="b5OsMDEcb1tCV_Yvxusm-43" style="edgeStyle=orthogonalEdgeStyle;rounded=0;orthogonalLoop=1;jettySize=auto;html=1;exitX=0;exitY=0.5;exitDx=0;exitDy=0;strokeWidth=3;" edge="1" parent="1" source="b5OsMDEcb1tCV_Yvxusm-42" target="b5OsMDEcb1tCV_Yvxusm-12">
          <mxGeometry relative="1" as="geometry">
            <Array as="points">
              <mxPoint x="395" y="585" />
            </Array>
          </mxGeometry>
        </mxCell>
        <mxCell id="b5OsMDEcb1tCV_Yvxusm-42" value="&lt;font style=&quot;font-size: 30px;&quot;&gt;&lt;b&gt;Neuron&lt;/b&gt;&lt;/font&gt;" style="text;html=1;strokeColor=none;fillColor=none;align=center;verticalAlign=middle;whiteSpace=wrap;rounded=0;" vertex="1" parent="1">
          <mxGeometry x="430" y="560" width="130" height="50" as="geometry" />
        </mxCell>
        <mxCell id="b5OsMDEcb1tCV_Yvxusm-45" style="edgeStyle=orthogonalEdgeStyle;rounded=0;orthogonalLoop=1;jettySize=auto;html=1;strokeWidth=3;" edge="1" parent="1">
          <mxGeometry relative="1" as="geometry">
            <mxPoint x="510" y="463" as="targetPoint" />
            <mxPoint x="570" y="517.9885057471265" as="sourcePoint" />
          </mxGeometry>
        </mxCell>
        <mxCell id="b5OsMDEcb1tCV_Yvxusm-44" value="&lt;font style=&quot;font-size: 30px;&quot;&gt;&lt;b&gt;Connection&lt;/b&gt;&lt;/font&gt;" style="text;html=1;strokeColor=none;fillColor=none;align=center;verticalAlign=middle;whiteSpace=wrap;rounded=0;" vertex="1" parent="1">
          <mxGeometry x="570" y="490" width="180" height="50" as="geometry" />
        </mxCell>
      </root>
    </mxGraphModel>
  </diagram>
</mxfile>
